<svg data-v-423bf9ae="" xmlns="http://www.w3.org/2000/svg" viewBox="0 0 428 90" class="iconLeft"><!----><!----><!----><g data-v-423bf9ae="" id="629111ce-66dd-4e2b-ad13-fbe08d4ca443" fill="#000000" transform="matrix(5.012531216500398,0,0,5.012531216500398,110.50784793555835,7.9824582045468375)"><path d="M6.33 3.57L7.31 2.06C7.22 1.90 7.02 1.75 6.69 1.61C6.37 1.47 6.00 1.40 5.59 1.40C3.92 1.40 2.94 2.19 2.67 3.78L2.25 6.16L1.34 6.16L1.06 7.77L1.97 7.77L1.12 12.60L3.01 12.60L3.86 7.77L5.47 7.77L5.75 6.16L4.14 6.16L4.51 4.13C4.57 3.77 4.70 3.50 4.88 3.33C5.06 3.16 5.27 3.08 5.50 3.08C5.91 3.08 6.19 3.24 6.33 3.57ZM10.51 11.65L10.35 12.60L12.24 12.60L13.37 6.16L11.48 6.16L10.77 10.19C10.66 10.59 10.46 10.90 10.16 11.11C9.87 11.32 9.52 11.42 9.13 11.42C8.77 11.42 8.53 11.32 8.40 11.12C8.27 10.91 8.25 10.57 8.34 10.08L9.03 6.16L7.14 6.16L6.37 10.50C6.24 11.26 6.34 11.84 6.66 12.26C6.99 12.68 7.49 12.89 8.16 12.89C9.13 12.89 9.92 12.48 10.51 11.65ZM16.52 8.57C16.62 8.17 16.82 7.86 17.12 7.65C17.42 7.44 17.77 7.34 18.16 7.34C18.51 7.34 18.76 7.44 18.89 7.64C19.02 7.85 19.04 8.19 18.94 8.68L18.26 12.60L20.15 12.60L20.92 8.26C21.05 7.50 20.95 6.92 20.62 6.50C20.30 6.08 19.80 5.87 19.12 5.87C18.15 5.87 17.37 6.28 16.77 7.11L16.94 6.16L15.05 6.16L13.92 12.60L15.81 12.60ZM28.94 1.68L27.93 7.36C27.74 6.90 27.45 6.53 27.06 6.27C26.67 6.01 26.22 5.88 25.72 5.88C24.63 5.88 23.72 6.23 22.99 6.94C22.26 7.65 21.90 8.65 21.90 9.94C21.90 10.88 22.16 11.61 22.68 12.12C23.20 12.63 23.89 12.88 24.75 12.88C25.19 12.88 25.63 12.76 26.06 12.51C26.50 12.26 26.88 11.92 27.20 11.48L27.01 12.60L28.90 12.60L30.83 1.68ZM23.84 9.76C23.84 9.05 24.06 8.50 24.49 8.13C24.92 7.75 25.43 7.56 26.04 7.56C26.51 7.56 26.88 7.67 27.17 7.89C27.46 8.11 27.61 8.45 27.61 8.92C27.61 9.66 27.38 10.22 26.92 10.61C26.46 11.00 25.96 11.20 25.41 11.20C24.94 11.20 24.57 11.07 24.28 10.81C23.99 10.56 23.84 10.21 23.84 9.76ZM33.77 7.91L29.74 12.60L35.76 12.60L36.06 10.85L33.42 10.85L37.45 6.16L31.43 6.16L31.12 7.91ZM37.24 6.16L39.68 13.37L44.66 6.16L42.42 6.16L40.22 9.83L39.34 6.16ZM45.26 6.16L44.13 12.60L46.07 12.60L47.21 6.16ZM45.53 3.61C45.53 3.91 45.64 4.17 45.87 4.38C46.10 4.60 46.37 4.70 46.69 4.70C47.01 4.70 47.28 4.60 47.51 4.38C47.74 4.17 47.85 3.91 47.85 3.61C47.85 3.31 47.74 3.06 47.51 2.84C47.28 2.63 47.01 2.52 46.69 2.52C46.37 2.52 46.10 2.63 45.87 2.84C45.64 3.06 45.53 3.31 45.53 3.61ZM49.67 1.68L47.74 12.60L49.63 12.60L51.56 1.68ZM53.31 1.68L51.38 12.60L53.27 12.60L55.20 1.68ZM61.35 6.16L61.14 7.38C60.95 6.91 60.66 6.54 60.26 6.28C59.87 6.01 59.42 5.88 58.91 5.88C57.95 5.88 57.07 6.25 56.28 6.99C55.49 7.72 55.09 8.66 55.09 9.80C55.09 10.75 55.35 11.50 55.88 12.05C56.41 12.60 57.10 12.88 57.95 12.88C58.38 12.88 58.82 12.76 59.26 12.51C59.69 12.26 60.07 11.92 60.40 11.48L60.20 12.60L62.09 12.60L63.24 6.16ZM57.04 9.76C57.04 9.05 57.25 8.50 57.68 8.13C58.11 7.75 58.63 7.56 59.23 7.56C59.70 7.56 60.08 7.67 60.37 7.89C60.66 8.11 60.80 8.45 60.80 8.92C60.80 9.66 60.57 10.22 60.12 10.61C59.66 11.00 59.15 11.20 58.60 11.20C58.14 11.20 57.76 11.07 57.47 10.81C57.18 10.56 57.04 10.21 57.04 9.76Z"></path></g><defs data-v-423bf9ae=""><linearGradient data-v-423bf9ae="" gradientTransform="rotate(25)" id="1dd43207-6cce-4d6b-a289-5b808168cce1" x1="0%" y1="0%" x2="100%" y2="0%"><stop data-v-423bf9ae="" offset="0%" style="stop-color: rgb(0, 10, 104); stop-opacity: 1;"></stop><stop data-v-423bf9ae="" offset="100%" style="stop-color: rgb(0, 196, 238); stop-opacity: 1;"></stop></linearGradient></defs><g data-v-423bf9ae="" id="d945f6c0-f94a-4288-b302-93046579d4eb" transform="matrix(2.994410458179972,0,0,2.994410458179972,0.08943266912044834,-1.9385669710569857)" stroke="none" fill="url(#1dd43207-6cce-4d6b-a289-5b808168cce1)"><path d="M17.572 23.933l4.106 7.095L32 13.189h-8.981V7.582L11.51.972 0 7.582v13.222l11.51 6.611 6.062-3.482zm10.96-8.744l-6.855 11.846-6.855-11.846h13.71z"></path></g><!----></svg>